<svg version="1.1" xmlns="http://www.w3.org/2000/svg">

    <symbol id="arrow-down" viewBox="0 0 48 32">
        <path d="M47.492 5.926c0.298 0.298 0.446 0.64 0.446 1.027s-0.149 0.729-0.446 1.027l-20.804 20.804c-0.298 0.298-0.64 0.446-1.027 0.446s-0.729-0.149-1.027-0.446l-20.804-20.804c-0.298-0.298-0.446-0.64-0.446-1.027s0.149-0.729 0.446-1.027l2.232-2.232c0.298-0.298 0.64-0.446 1.027-0.446s0.729 0.149 1.027 0.446l17.545 17.545 17.545-17.545c0.298-0.298 0.64-0.446 1.027-0.446s0.729 0.149 1.027 0.446l2.232 2.232z"></path>
    </symbol>

    <symbol id="clock" viewBox="0 0 30 32">
        <path d="M16.941 9.48c0-0.34-0.265-0.605-0.605-0.605h-1.21c-0.34 0-0.605 0.265-0.605 0.605v6.655h-4.235c-0.34 0-0.605 0.265-0.605 0.605v1.21c0 0.34 0.265 0.605 0.605 0.605h6.050c0.34 0 0.605-0.265 0.605-0.605v-8.471zM24.807 16.135c0 5.672-4.613 10.286-10.286 10.286s-10.286-4.613-10.286-10.286c0-5.672 4.613-10.286 10.286-10.286s10.286 4.613 10.286 10.286zM29.042 16.135c0-8.017-6.504-14.521-14.521-14.521s-14.521 6.504-14.521 14.521c0 8.017 6.504 14.521 14.521 14.521s14.521-6.504 14.521-14.521z"></path>
    </symbol>

    <symbol id="location" viewBox="0 0 21 32">
        <path d="M14.694 10.286c0 2.698-2.2 4.898-4.898 4.898s-4.898-2.2-4.898-4.898c0-2.698 2.2-4.898 4.898-4.898s4.898 2.2 4.898 4.898zM19.592 10.286c0-5.415-4.381-9.796-9.796-9.796s-9.796 4.381-9.796 9.796c0 1.167 0.134 2.372 0.631 3.425l6.983 14.809c0.383 0.842 1.263 1.358 2.181 1.358s1.799-0.517 2.2-1.358l6.964-14.809c0.497-1.052 0.631-2.258 0.631-3.425z"></path>
    </symbol>

    <symbol id="phone" viewBox="0 0 32 32">
        <path d="M30.172 25.658c0-0.15 0-0.3-0.064-0.45-0.15-0.45-1.2-0.921-1.629-1.136-1.221-0.686-2.464-1.35-3.664-2.057-0.557-0.343-1.243-0.986-1.907-0.986-1.307 0-3.214 3.879-4.371 3.879-0.579 0-1.329-0.536-1.843-0.836-3.9-2.164-6.6-4.864-8.764-8.764-0.3-0.514-0.836-1.264-0.836-1.843 0-1.157 3.879-3.064 3.879-4.371 0-0.664-0.643-1.35-0.986-1.907-0.707-1.2-1.371-2.443-2.057-3.664-0.214-0.429-0.686-1.479-1.136-1.629-0.15-0.064-0.3-0.064-0.45-0.064-0.771 0-2.271 0.343-2.979 0.664-1.050 0.45-1.736 1.65-2.271 2.614-0.686 1.264-1.093 2.55-1.093 3.986 0 1.993 0.814 3.793 1.479 5.614 0.471 1.307 1.050 2.571 1.779 3.75 2.25 3.643 6.643 8.036 10.286 10.286 1.179 0.729 2.443 1.307 3.75 1.779 1.821 0.664 3.621 1.479 5.614 1.479 1.436 0 2.721-0.407 3.986-1.093 0.964-0.536 2.164-1.221 2.614-2.271 0.321-0.707 0.664-2.207 0.664-2.979z"></path>
    </symbol>

    <symbol id="print" viewBox="0 0 39 32">
        <path d="M25.294 17.759l-2.349 4.747h-7.912l-2.349-4.747h-7.813c0.049-0.124 0.074-0.272 0.124-0.396l5.242-12.264h17.506l5.242 12.264c0.049 0.124 0.074 0.272 0.124 0.396h-7.813zM37.978 18.5c0-0.89-0.272-2.201-0.618-3.041l-5.885-13.648c-0.346-0.816-1.335-1.459-2.2-1.459h-20.572c-0.865 0-1.854 0.643-2.201 1.459l-5.885 13.648c-0.346 0.841-0.618 2.151-0.618 3.041v11.918c0 0.865 0.717 1.582 1.582 1.582h34.813c0.865 0 1.583-0.717 1.583-1.582v-11.918z"></path>
    </symbol>

    <symbol id="menu" viewBox="0 0 32 32">
        <path d="M2 6h28v6h-28zM2 14h28v6h-28zM2 22h28v6h-28z"></path>
    </symbol>

    <symbol id="cross" viewBox="0 0 32 32">
        <path d="M31.708 25.708c-0-0-0-0-0-0l-9.708-9.708 9.708-9.708c0-0 0-0 0-0 0.105-0.105 0.18-0.227 0.229-0.357 0.133-0.356 0.057-0.771-0.229-1.057l-4.586-4.586c-0.286-0.286-0.702-0.361-1.057-0.229-0.13 0.048-0.252 0.124-0.357 0.228 0 0-0 0-0 0l-9.708 9.708-9.708-9.708c-0-0-0-0-0-0-0.105-0.104-0.227-0.18-0.357-0.228-0.356-0.133-0.771-0.057-1.057 0.229l-4.586 4.586c-0.286 0.286-0.361 0.702-0.229 1.057 0.049 0.13 0.124 0.252 0.229 0.357 0 0 0 0 0 0l9.708 9.708-9.708 9.708c-0 0-0 0-0 0-0.104 0.105-0.18 0.227-0.229 0.357-0.133 0.355-0.057 0.771 0.229 1.057l4.586 4.586c0.286 0.286 0.702 0.361 1.057 0.229 0.13-0.049 0.252-0.124 0.357-0.229 0-0 0-0 0-0l9.708-9.708 9.708 9.708c0 0 0 0 0 0 0.105 0.105 0.227 0.18 0.357 0.229 0.356 0.133 0.771 0.057 1.057-0.229l4.586-4.586c0.286-0.286 0.362-0.702 0.229-1.057-0.049-0.13-0.124-0.252-0.229-0.357z"></path>
    </symbol>

</svg>
